<svg width="100%" height="100%" viewBox="0 0 204 104" version="1.1" xmlns="http://www.w3.org/2000/svg" xmlns:xlink="http://www.w3.org/1999/xlink" >
    <g id="Tavola-da-disegno1" serif:id="Tavola da disegno1" transform="matrix(0.811455,0,0,0.686046,-454.513,-609.733)">
        <rect x="560.122" y="888.764" width="250.832" height="150.144" style="fill:none;"/>
        <g transform="matrix(1.23235,0,0,1.45763,-154.033,-433.255)">
            <path d="M604.876,918.628L604.534,918.75L604.29,918.75C603.997,918.75 603.72,918.71 603.46,918.628C603.02,918.71 602.727,918.807 602.581,918.921L601.409,918.921C601.181,918.921 600.888,918.889 600.53,918.824C600.432,918.889 600.237,918.921 599.944,918.921C599.358,918.726 598.943,918.628 598.699,918.628C598.455,918.628 598.154,918.726 597.796,918.921L597.112,918.628C596.217,918.693 595.664,918.726 595.452,918.726C594.866,918.677 594.573,918.579 594.573,918.433L594.085,918.531L593.987,918.531C592.88,917.749 592.327,917.066 592.327,916.48L592.327,915.601C593.141,914.299 593.922,913.648 594.671,913.648L595.183,913.452C595.46,913.387 596.005,913.355 596.819,913.355C597.145,913.355 597.307,913.42 597.307,913.55C597.633,913.436 598.007,913.371 598.431,913.355L598.919,913.33C598.984,913.33 599.285,913.29 599.822,913.208C599.887,913.208 600.156,913.257 600.628,913.355L601.116,913.355L601.311,913.452C601.311,913.404 601.433,913.355 601.678,913.306L601.946,913.257C602.06,913.241 602.182,913.225 602.312,913.208L602.679,913.233C602.841,913.216 603.028,913.2 603.24,913.184L603.606,913.184L603.85,913.16L603.948,913.16L604.388,913.208L604.851,913.404L605.974,913.306C606.333,913.404 606.682,913.485 607.024,913.55C607.268,913.485 607.561,913.452 607.903,913.452L608.196,913.452L608.636,913.575L609.27,913.55C609.466,913.615 609.645,913.656 609.807,913.672C610.947,913.721 611.842,914.331 612.493,915.503C612.753,916.398 612.884,917.245 612.884,918.042L612.884,918.14C612.884,918.514 612.819,918.905 612.688,919.312C612.884,920.386 612.981,921.037 612.981,921.265L612.981,921.363C612.786,922.339 612.688,922.86 612.688,922.925C612.77,924.016 612.835,924.602 612.884,924.683C612.688,925.562 612.591,926.571 612.591,927.71L612.762,928.833C612.778,929.012 612.786,929.2 612.786,929.395C612.786,930.013 612.721,930.673 612.591,931.372L612.737,933.277C612.737,933.83 612.77,934.416 612.835,935.035C612.802,935.311 612.778,935.588 612.762,935.865L612.591,936.67L612.493,938.062C612.298,938.697 612.102,939.608 611.907,940.796C611.11,942.033 610.459,942.652 609.954,942.652C609.27,943.498 608.684,943.921 608.196,943.921C607.757,944.182 606.227,944.54 603.606,944.995L603.118,944.898C602.955,944.898 602.532,944.995 601.848,945.191C601.523,945.142 601.36,945.044 601.36,944.898C600.937,945.028 600.156,945.191 599.016,945.386C598.951,945.386 598.365,945.256 597.259,944.995L596.868,945.093C596.738,945.093 596.542,945.028 596.282,944.898L596.087,944.995C595.517,944.963 595.192,944.947 595.11,944.947C594.654,944.947 593.971,944.865 593.059,944.702C592.539,944.654 592.278,944.589 592.278,944.507C591.139,944.442 590.016,944.019 588.909,943.238C588.437,942.587 588.144,942.261 588.03,942.261C587.753,941.398 587.558,940.943 587.444,940.894C587.102,939.592 586.858,938.941 586.712,938.941C586.712,937.183 586.777,936.304 586.907,936.304C586.907,934.839 587.688,933.83 589.251,933.277C590.032,933.277 590.878,933.7 591.79,934.546L592.376,937.769L592.376,938.648C592.571,938.892 593.58,939.217 595.403,939.624C595.615,939.624 596.168,939.592 597.063,939.527L597.747,939.722L599.212,939.722C599.277,939.722 599.537,939.657 599.993,939.527L600.262,939.624L600.579,939.722C600.856,939.722 601.116,939.689 601.36,939.624C601.621,939.689 601.881,939.722 602.141,939.722L602.63,939.722L602.996,939.551L603.118,939.551C603.297,939.551 603.525,939.576 603.802,939.624C604.143,939.559 604.534,939.527 604.973,939.527L605.266,939.527C605.429,939.396 605.722,939.234 606.145,939.038C606.666,939.038 607.122,938.55 607.513,937.574L607.415,936.89C607.48,936.695 607.545,936.353 607.61,935.865L607.513,935.865L607.513,935.718L607.806,934.253C607.74,933.57 607.708,933.016 607.708,932.593L607.806,932.593C607.675,932.235 607.61,931.584 607.61,930.64C607.61,930.575 607.643,930.477 607.708,930.347C607.578,929.875 607.513,929.224 607.513,928.394C607.643,928.182 607.708,927.987 607.708,927.808L607.708,927.71C607.578,927.238 607.513,926.978 607.513,926.929L607.513,926.734C607.757,926.343 607.919,926.148 608.001,926.148C607.936,926.001 607.806,925.285 607.61,923.999L607.708,923.609L607.513,922.73C607.578,922.111 607.61,921.525 607.61,920.972L607.464,920.581L607.513,920.288C607.415,919.247 607.089,918.726 606.536,918.726C606.357,918.726 605.999,918.661 605.462,918.531C605.25,918.531 605.087,918.563 604.973,918.628L604.876,918.628Z"/>
            <path d="M634.173,922.705L634.563,922.803C634.677,922.738 634.807,922.705 634.954,922.705L635.54,922.998L636.028,922.998L636.028,923.194L636.419,923.194C636.891,923.194 637.444,923.291 638.079,923.487C638.502,923.356 638.795,923.291 638.958,923.291L639.056,923.291C641.041,923.682 642.181,924.007 642.473,924.268C642.473,924.414 642.962,924.74 643.938,925.244C644.329,925.782 644.752,926.498 645.208,927.393L645.208,929.053C645.338,929.509 645.403,929.769 645.403,929.834L645.403,930.616C645.403,930.892 645.436,931.25 645.501,931.69C645.371,932.015 645.306,932.243 645.306,932.373C645.436,932.634 645.501,932.829 645.501,932.959L645.403,933.35C645.403,933.415 645.436,933.513 645.501,933.643C645.436,934.196 645.403,934.652 645.403,935.01L645.403,936.084C645.403,936.54 645.338,936.768 645.208,936.768L645.598,938.819L645.598,939.307C645.403,939.567 645.306,940.056 645.306,940.772L645.403,941.748L645.306,941.748C645.306,941.813 645.338,941.846 645.403,941.846L645.306,942.823L645.306,943.311L645.11,943.311L645.11,943.604C644.703,945.036 644.182,945.752 643.548,945.752C643.548,945.866 643.352,945.996 642.962,946.143C641.92,946.143 641.106,945.72 640.52,944.873C640.325,944.873 640.227,944.808 640.227,944.678L640.032,944.776L639.251,944.776L638.665,944.873C638.6,944.873 638.567,944.841 638.567,944.776L637.2,945.069L635.54,945.069C635.393,945.069 635.263,945.101 635.149,945.166C635.084,945.166 635.052,945.134 635.052,945.069C633.75,945.134 632.773,945.166 632.122,945.166L628.704,945.166C628.639,945.166 628.378,945.101 627.923,944.971L627.532,944.971C626.197,944.971 625.058,944.711 624.114,944.19L624.114,944.092L623.626,944.092C623.056,944.092 622.21,943.571 621.087,942.53C620.436,940.69 620.11,939.258 620.11,938.233C620.11,938.184 620.143,937.989 620.208,937.647C620.143,937.24 620.11,936.784 620.11,936.28L620.11,936.084C620.973,934.31 621.689,933.203 622.259,932.764C622.259,932.243 623.496,931.787 625.97,931.397C626.051,931.299 626.507,931.136 627.337,930.909C627.76,931.039 628.053,931.104 628.216,931.104L628.606,931.104C628.769,930.974 629.16,930.843 629.778,930.713C629.843,930.713 629.876,930.746 629.876,930.811L630.364,930.713L631.829,930.713C632.35,930.713 633.074,930.729 634.002,930.762L635.052,930.909L635.247,930.811L636.858,931.104L638.372,931.299C638.828,931.299 639.194,931.315 639.471,931.348C639.487,931.364 639.503,931.372 639.519,931.372C639.764,931.372 640,931.153 640.227,930.713L640.13,930.518C640.13,930.453 640.162,930.42 640.227,930.42L640.13,929.932L640.13,929.151C639.804,929.151 639.641,928.955 639.641,928.565L638.47,928.565L636.809,927.881L636.321,927.979L635.735,927.979C635.589,927.979 635.459,927.946 635.345,927.881C634.58,928.125 633.896,928.288 633.294,928.369C632.757,928.109 632.236,927.979 631.731,927.979C631.731,928.142 630.82,928.304 628.997,928.467L628.997,928.565L628.509,928.467L625.97,928.467C625.253,928.776 624.895,929.102 624.895,929.444L623.723,930.127L623.235,930.127L623.235,930.323L623.04,930.323C621.575,929.753 620.826,929.297 620.794,928.955C620.761,928.955 620.598,928.76 620.306,928.369L620.306,927.393L620.11,927.1L620.11,926.807C620.289,926.351 620.55,925.993 620.891,925.733C621.168,925.147 622.145,924.528 623.821,923.877C624.488,923.356 625.074,923.096 625.579,923.096L626.263,923.096C627.207,923.226 627.695,923.291 627.727,923.291C628.688,923.291 629.436,923.129 629.973,922.803L631.536,922.803L632.708,922.998C633.001,922.998 633.489,922.901 634.173,922.705ZM633.782,935.987L632.122,935.987C632.057,935.987 632.024,935.954 632.024,935.889C631.682,936.019 631.227,936.117 630.657,936.182C629.615,936.052 628.997,935.987 628.802,935.987C628.02,936.052 627.434,936.084 627.044,936.084L627.044,935.987C625.937,936.247 625.384,936.605 625.384,937.061L625.286,937.061C625.351,937.403 625.384,937.598 625.384,937.647L625.286,938.33C625.481,938.363 625.579,938.623 625.579,939.112L625.579,939.502C626.344,939.828 627.093,940.056 627.825,940.186C628.378,940.121 628.834,940.088 629.192,940.088L629.973,940.088C630.413,940.088 631.455,940.251 633.098,940.577C633.505,940.511 633.961,940.479 634.466,940.479L634.563,940.479C635.133,940.088 635.719,939.893 636.321,939.893C636.695,939.974 636.956,940.072 637.102,940.186L638.274,940.186C638.274,939.991 638.763,939.795 639.739,939.6C640.048,939.388 640.406,938.835 640.813,937.94L640.716,937.744L640.716,937.256C640.439,937.256 640.081,936.931 639.641,936.28C637.558,936.149 636.321,935.987 635.931,935.791L635.247,935.791L634.954,935.596L633.782,935.987Z"/>
            <path d="M665.618,922.705L665.911,922.901L666.57,922.681C669.256,922.941 671.599,923.234 673.601,923.56C674.822,923.918 675.538,924.178 675.75,924.341C675.75,924.439 675.945,924.602 676.336,924.829C676.938,925.66 677.329,926.408 677.508,927.076C677.654,927.076 677.849,927.759 678.094,929.126L678.191,929.126C677.931,931.014 677.508,931.958 676.922,931.958C676.922,932.072 676.368,932.17 675.262,932.251C674.578,932.251 673.829,931.372 673.015,929.615L671.453,928.443C670.623,928.313 669.939,928.247 669.402,928.247L668.914,928.345C668.116,928.215 667.433,928.15 666.863,928.15C666.798,928.15 666.7,928.182 666.57,928.247L665.984,928.15L665.398,928.15C665.073,927.889 664.877,927.759 664.812,927.759L664.617,927.857C664.584,927.857 664.259,927.759 663.64,927.564C663.64,927.824 662.469,928.085 660.125,928.345C659.962,928.345 659.409,928.768 658.465,929.615C658.465,929.68 658.497,929.712 658.562,929.712C658.497,930.819 658.367,931.73 658.172,932.447C658.172,932.577 658.237,932.805 658.367,933.13C658.367,933.195 658.334,933.228 658.269,933.228L658.367,933.716C658.367,933.879 658.269,934.27 658.074,934.888L658.074,936.158C658.074,936.906 658.367,937.883 658.953,939.087C659.555,939.738 660.597,940.064 662.078,940.064L664.129,940.064C664.584,940.064 665.138,940.161 665.789,940.357L667.425,940.21C668.548,940.178 669.532,940.161 670.379,940.161C670.444,940.161 670.476,940.194 670.476,940.259C671.388,939.706 672.137,939.348 672.723,939.185L673.211,937.818C673.357,937.818 673.455,937.622 673.504,937.232C673.976,936.451 674.594,936.06 675.359,936.06C676.612,936.06 677.459,936.581 677.898,937.622C677.898,937.867 677.963,938.062 678.094,938.208C678.094,938.355 678.061,938.485 677.996,938.599L678.191,940.161L677.605,941.626C677.019,942.424 676.433,943.01 675.848,943.384C675.196,943.921 673.927,944.41 672.039,944.849L670.574,944.849C669.956,944.979 669.174,945.077 668.23,945.142L667.644,944.849L666.57,944.849C665.724,945.044 665.17,945.142 664.91,945.142L664.812,945.142C664.764,945.142 664.503,945.077 664.031,944.947L662.347,945.142C661.94,945.012 661.557,944.914 661.199,944.849C660.857,944.979 660.499,945.044 660.125,945.044C658.953,944.979 657.911,944.654 657,944.068C656.267,944.068 655.421,943.417 654.461,942.115C653.94,940.813 653.614,939.803 653.484,939.087C653.354,939.087 653.289,939.022 653.289,938.892L653.289,938.501C653.289,937.427 653.256,936.581 653.191,935.962C653.256,935.344 653.289,934.758 653.289,934.204C653.224,933.146 653.159,932.593 653.094,932.544C653.094,932.284 653.387,931.177 653.973,929.224L653.973,929.126L653.875,928.15C653.875,927.906 654.038,927.417 654.363,926.685C654.363,926.457 654.558,926.132 654.949,925.708C655.405,924.943 656.088,924.357 657,923.951C658.009,923.755 658.75,923.511 659.222,923.218C660.198,923.007 661.02,922.901 661.687,922.901C661.818,922.901 661.94,922.909 662.054,922.925C662.444,922.73 663.12,922.632 664.08,922.632C664.536,922.632 665.048,922.657 665.618,922.705Z"/>
            <path d="M696.599,922.681C698.487,922.746 700.05,922.779 701.287,922.779L701.385,922.779C704.054,923.039 705.389,923.267 705.389,923.462C705.519,923.397 705.616,923.365 705.681,923.365C706.284,923.365 707.163,923.853 708.318,924.829C708.611,924.895 709.034,925.773 709.588,927.466C709.588,927.613 709.75,927.906 710.076,928.345C710.076,929.077 710.174,929.891 710.369,930.786C710.304,931.356 710.271,931.682 710.271,931.763C710.532,932.674 710.662,933.163 710.662,933.228C710.467,935.327 710.304,936.597 710.174,937.036L710.271,937.525C710.043,939.543 709.881,940.552 709.783,940.552C709.783,941.057 709.034,942.066 707.537,943.579C705.763,944.312 704.2,944.8 702.849,945.044C702.28,944.979 701.792,944.947 701.385,944.947C701.108,944.947 700.848,945.012 700.603,945.142C698.797,945.077 697.299,945.044 696.111,945.044L694.744,945.044C694.418,945.044 693.995,944.914 693.474,944.654L693.279,944.751C693.019,944.702 692.889,944.637 692.889,944.556L692.693,944.654C691.717,944.523 690.903,944.458 690.252,944.458L690.056,944.458C688.917,943.986 688.331,943.563 688.299,943.189C687.892,942.993 687.599,942.603 687.42,942.017C687.078,942.017 686.785,941.203 686.541,939.576C686.427,939.494 686.069,938.55 685.467,936.743C685.467,936.532 685.499,935.979 685.564,935.083C685.564,934.742 685.532,934.188 685.467,933.423C685.532,931.405 685.597,930.396 685.662,930.396C685.906,929.566 686.101,928.622 686.248,927.564L687.029,926.099C687.648,924.732 688.266,924.048 688.885,924.048C689.145,923.755 689.991,923.397 691.424,922.974L694.158,922.974C694.305,922.974 694.435,923.007 694.549,923.072C694.663,923.007 694.793,922.974 694.939,922.974L695.721,922.974C695.932,922.811 696.225,922.714 696.599,922.681ZM694.939,928.052L694.549,928.052C694.288,928.052 693.344,928.28 691.717,928.736L691.131,930.005C690.952,930.461 690.789,931.112 690.642,931.958L690.642,932.154C690.642,932.707 690.708,933.13 690.838,933.423L690.74,933.618C690.74,933.684 690.773,933.716 690.838,933.716L690.74,934.204L690.74,934.693C690.74,935.116 690.708,935.539 690.642,935.962C690.903,937.785 691.163,938.697 691.424,938.697C691.57,939.217 691.961,939.478 692.596,939.478L693.084,939.771L693.572,939.771C693.833,939.771 694.256,939.706 694.842,939.576L696.502,940.064L697.283,940.064C697.592,940.064 697.918,940.096 698.26,940.161C698.829,940.031 699.285,939.966 699.627,939.966C700.603,940.096 701.124,940.161 701.189,940.161C703.533,939.771 704.705,939.185 704.705,938.404C704.965,937.736 705.096,937.281 705.096,937.036L705.096,936.353C705.226,936.19 705.389,935.604 705.584,934.595C705.389,934.416 705.291,933.179 705.291,930.884L705.291,930.591C704.965,929.908 704.607,929.387 704.217,929.029C703.598,928.443 702.817,928.15 701.873,928.15C701.612,928.28 701.254,928.345 700.799,928.345C700.262,928.345 699.773,928.247 699.334,928.052C699.22,928.117 699.09,928.15 698.943,928.15L698.846,928.15C698.78,928.15 698.748,928.117 698.748,928.052C698.471,928.182 697.95,928.247 697.185,928.247L696.99,928.247C696.469,928.247 695.851,928.15 695.135,927.954L694.939,928.052Z"/>
            <path d="M721.355,922.046L721.502,922.046C722.185,922.046 722.918,922.429 723.699,923.194C723.927,923.373 724.122,923.462 724.285,923.462L724.895,923.413C725.123,923.413 725.506,923.397 726.043,923.365L726.726,923.194C726.873,923.194 727.003,923.161 727.117,923.096L727.288,923.096C727.662,923.096 728.094,923.055 728.582,922.974L729.168,923.023L729.265,923.023C729.672,923.023 730.161,923.055 730.73,923.12C731.463,922.86 732.081,922.73 732.586,922.73L732.976,922.73C733.432,922.73 733.929,922.836 734.466,923.047C735.035,923.096 735.483,923.12 735.808,923.12C735.808,923.267 736.59,923.462 738.152,923.706C738.559,923.934 739.21,924.195 740.105,924.488C740.887,924.976 741.277,925.497 741.277,926.05C741.798,926.669 742.254,927.841 742.644,929.566C742.644,929.891 742.709,930.282 742.84,930.738C742.709,931.73 742.644,932.447 742.644,932.886L742.742,934.253L742.644,934.742C742.644,934.953 742.742,935.214 742.937,935.523C742.612,937.264 742.254,938.697 741.863,939.82C741.863,940.357 741.635,940.975 741.18,941.675C741,941.74 740.675,942.229 740.203,943.14C739.796,943.4 739.178,943.726 738.348,944.117C737.224,944.377 736.476,944.637 736.101,944.898C736.053,944.898 735.792,944.8 735.32,944.605C734.848,944.605 734.002,944.735 732.781,944.995C732.651,944.93 732.553,944.898 732.488,944.898C732.293,944.898 732.032,944.963 731.707,945.093C731.642,945.093 731.609,945.061 731.609,944.995L730.926,945.093L729.363,945.093C729.298,945.093 729.265,945.061 729.265,944.995L729.07,945.093C729.005,945.093 728.973,945.061 728.973,944.995L728.289,945.191L727.898,944.995C727.849,944.995 727.654,945.028 727.312,945.093C726.385,944.768 725.115,944.507 723.504,944.312C723.406,944.312 723.211,944.572 722.918,945.093L722.918,946.753C722.918,947.209 722.983,947.567 723.113,947.827L723.015,948.316C723.081,948.885 723.178,949.504 723.308,950.171C723.243,950.301 723.211,950.399 723.211,950.464C723.276,950.578 723.308,950.708 723.308,950.855L723.211,950.855L723.308,951.05L723.308,952.32L722.82,953.785C722.267,954.533 721.616,955.021 720.867,955.249C720.395,955.249 719.549,954.761 718.328,953.785C718.247,953.199 718.181,952.841 718.133,952.71C718.198,952.58 718.23,952.482 718.23,952.417C718.23,952.01 718.1,950.936 717.84,949.195C718.1,948.348 718.23,947.665 718.23,947.144C718.23,946.672 718.198,945.923 718.133,944.898L718.23,944.507L717.84,940.308C717.84,940.145 717.905,939.852 718.035,939.429C717.905,938.811 717.84,938.322 717.84,937.964L717.84,936.988C718.035,936.369 718.133,935.881 718.133,935.523L718.133,933.57C718.133,932.805 718.068,932.284 717.937,932.007C718.019,929.924 718.116,928.882 718.23,928.882L718.133,928.687L718.328,928.003C718.328,927.857 718.214,927.206 717.986,926.05L717.986,924.585C718.247,923.234 718.849,922.421 719.793,922.144C720.216,922.111 720.476,922.095 720.574,922.095C720.9,922.063 721.16,922.046 721.355,922.046ZM722.723,930.64L722.82,930.835L722.82,931.031C722.82,931.096 722.788,931.128 722.723,931.128L722.82,931.324L722.82,932.691C722.82,932.902 722.755,933.358 722.625,934.058C722.69,935.262 722.723,936.011 722.723,936.304L722.625,936.695C722.95,937.932 723.243,938.55 723.504,938.55L724.09,939.234L724.285,939.136L725.359,939.624L725.652,939.624L725.652,939.82L726.336,939.82C727.182,939.999 727.605,940.194 727.605,940.406L727.898,940.406C728.126,940.406 728.419,940.438 728.777,940.503L730.047,940.21C730.405,940.275 730.698,940.308 730.926,940.308L732.293,940.308C732.456,940.194 732.716,940.096 733.074,940.015L733.269,940.113C733.693,939.982 733.953,939.917 734.051,939.917L734.734,940.015C736.297,939.608 737.078,939.283 737.078,939.038C737.403,938.648 737.566,937.769 737.566,936.402C737.745,936.158 737.941,935.604 738.152,934.742C737.957,933.244 737.859,932.072 737.859,931.226L737.859,929.761C737.273,929.37 736.98,928.915 736.98,928.394C736.525,928.394 736.167,928.329 735.906,928.199L735.711,928.296C734.799,927.906 734.246,927.71 734.051,927.71C733.969,927.71 733.611,927.775 732.976,927.906L732.781,927.906L731.902,927.71C731.365,927.71 730.844,927.743 730.34,927.808C729.949,927.743 729.461,927.71 728.875,927.71C728.81,927.71 728.712,927.743 728.582,927.808L727.996,927.71C725.131,928.15 723.699,928.638 723.699,929.175C723.276,929.598 722.95,930.087 722.723,930.64Z"/>
            <path d="M761.468,922.681C763.356,922.746 764.918,922.779 766.155,922.779L766.253,922.779C768.922,923.039 770.257,923.267 770.257,923.462C770.387,923.397 770.485,923.365 770.55,923.365C771.152,923.365 772.031,923.853 773.186,924.829C773.479,924.895 773.903,925.773 774.456,927.466C774.456,927.613 774.619,927.906 774.944,928.345C774.944,929.077 775.042,929.891 775.237,930.786C775.172,931.356 775.139,931.682 775.139,931.763C775.4,932.674 775.53,933.163 775.53,933.228C775.335,935.327 775.172,936.597 775.042,937.036L775.139,937.525C774.912,939.543 774.749,940.552 774.651,940.552C774.651,941.057 773.903,942.066 772.405,943.579C770.631,944.312 769.069,944.8 767.718,945.044C767.148,944.979 766.66,944.947 766.253,944.947C765.976,944.947 765.716,945.012 765.472,945.142C763.665,945.077 762.167,945.044 760.979,945.044L759.612,945.044C759.287,945.044 758.863,944.914 758.343,944.654L758.147,944.751C757.887,944.702 757.757,944.637 757.757,944.556L757.561,944.654C756.585,944.523 755.771,944.458 755.12,944.458L754.925,944.458C753.785,943.986 753.199,943.563 753.167,943.189C752.76,942.993 752.467,942.603 752.288,942.017C751.946,942.017 751.653,941.203 751.409,939.576C751.295,939.494 750.937,938.55 750.335,936.743C750.335,936.532 750.367,935.979 750.432,935.083C750.432,934.742 750.4,934.188 750.335,933.423C750.4,931.405 750.465,930.396 750.53,930.396C750.774,929.566 750.97,928.622 751.116,927.564L751.897,926.099C752.516,924.732 753.134,924.048 753.753,924.048C754.013,923.755 754.86,923.397 756.292,922.974L759.026,922.974C759.173,922.974 759.303,923.007 759.417,923.072C759.531,923.007 759.661,922.974 759.807,922.974L760.589,922.974C760.8,922.811 761.093,922.714 761.468,922.681ZM759.807,928.052L759.417,928.052C759.156,928.052 758.212,928.28 756.585,928.736L755.999,930.005C755.82,930.461 755.657,931.112 755.511,931.958L755.511,932.154C755.511,932.707 755.576,933.13 755.706,933.423L755.608,933.618C755.608,933.684 755.641,933.716 755.706,933.716L755.608,934.204L755.608,934.693C755.608,935.116 755.576,935.539 755.511,935.962C755.771,937.785 756.031,938.697 756.292,938.697C756.438,939.217 756.829,939.478 757.464,939.478L757.952,939.771L758.44,939.771C758.701,939.771 759.124,939.706 759.71,939.576L761.37,940.064L762.151,940.064C762.46,940.064 762.786,940.096 763.128,940.161C763.697,940.031 764.153,939.966 764.495,939.966C765.472,940.096 765.992,940.161 766.057,940.161C768.401,939.771 769.573,939.185 769.573,938.404C769.834,937.736 769.964,937.281 769.964,937.036L769.964,936.353C770.094,936.19 770.257,935.604 770.452,934.595C770.257,934.416 770.159,933.179 770.159,930.884L770.159,930.591C769.834,929.908 769.475,929.387 769.085,929.029C768.466,928.443 767.685,928.15 766.741,928.15C766.481,928.28 766.123,928.345 765.667,928.345C765.13,928.345 764.641,928.247 764.202,928.052C764.088,928.117 763.958,928.15 763.811,928.15L763.714,928.15C763.649,928.15 763.616,928.117 763.616,928.052C763.339,928.182 762.819,928.247 762.054,928.247L761.858,928.247C761.337,928.247 760.719,928.15 760.003,927.954L759.807,928.052Z"/>
            <path d="M605.706,969.019C606.21,969.198 606.918,969.54 607.83,970.044L608.416,970.044C609.474,970.061 610.157,970.362 610.467,970.948C610.678,970.948 610.8,971.143 610.833,971.534C612.33,973.275 613.079,975.79 613.079,979.077L613.079,979.395L612.981,979.395L613.079,979.59L613.055,979.785C613.055,979.851 613.022,979.883 612.957,979.883C612.957,979.948 612.989,979.981 613.055,979.981L612.957,980.469L612.932,982.129C612.721,983.138 612.615,983.789 612.615,984.082C612.615,984.261 612.705,984.717 612.884,985.45C612.884,985.482 612.851,985.612 612.786,985.84L613.055,987.696L612.835,989.649C612.884,989.746 612.908,989.828 612.908,989.893L612.908,989.942C612.778,989.958 612.713,990.023 612.713,990.137L612.713,990.625C612.713,990.902 612.778,991.162 612.908,991.407L612.786,991.602C612.851,992.172 612.916,992.53 612.981,992.676L612.054,995.484L612.054,996.265C611.744,996.688 611.508,997.274 611.346,998.023C609.783,999.618 608.465,1000.42 607.39,1000.42L607.098,1000.39L606.902,1000.29L604.558,1000.66L603.68,1000.44C603.435,1000.5 603.175,1000.54 602.898,1000.54C602.898,1000.41 602.833,1000.34 602.703,1000.34C602.508,1000.46 602.28,1000.51 602.019,1000.51L601.531,1000.51C601.466,1000.51 601.206,1000.45 600.75,1000.32L600.457,1000.29C600.457,1000.47 600.294,1000.63 599.969,1000.78L599.383,1000.78L599.09,1000.59L598.797,1000.56L598.504,1000.76L597.723,1000.78L597.332,1000.56L597.234,1000.56L595.086,1001C594.874,1000.87 594.679,1000.81 594.5,1000.81L594.305,1000.81L593.719,1000.88C593.312,1000.8 592.986,1000.67 592.742,1000.49L591.765,1000.56L591.765,1000.46C591.7,1000.46 591.668,1000.5 591.668,1000.56L590.203,1000.34C590.089,1000.41 589.959,1000.44 589.812,1000.44C588.461,1000.24 587.786,1000.01 587.786,999.732C587.428,999.26 587.192,998.47 587.078,997.364L587.176,997.364L587.078,997.168L587.102,995.02C586.956,994.157 586.883,993.116 586.883,991.895L586.883,991.211C586.948,990.235 587.013,989.714 587.078,989.649C586.899,989.177 586.809,988.884 586.809,988.77C586.777,988.347 586.761,988.005 586.761,987.744C586.761,987.321 586.801,987.11 586.883,987.11C586.883,987.045 586.85,987.012 586.785,987.012L587.005,986.035L586.907,985.45L587.005,984.864C586.956,983.22 586.875,982.308 586.761,982.129C586.907,980.876 587.021,979.737 587.102,978.711L586.931,976.368L587.054,975.879C587.005,974.854 586.915,974.17 586.785,973.828C587.111,971.241 587.452,969.947 587.81,969.947C588.168,969.491 589.186,969.149 590.862,968.921C591.432,969.117 592.01,969.287 592.596,969.434L593.548,968.994L593.743,968.994L594.622,969.019L596.209,969.483L596.966,969.068L597.796,969.019C598.056,969.149 598.284,969.214 598.479,969.214L599.163,969.043C599.684,969.043 600.302,969.149 601.018,969.361C601.311,969.23 601.669,969.133 602.093,969.068C603.053,969.149 603.867,969.198 604.534,969.214L605.706,969.019ZM593.889,974.61L593.23,974.317C592.579,974.398 592.246,974.65 592.229,975.074L592.132,975.66L592.205,976.538C592.124,977.71 592.083,978.654 592.083,979.37L591.985,979.37C591.985,979.436 592.018,979.468 592.083,979.468C591.985,980.673 591.936,981.551 591.936,982.105L591.912,983.667C591.912,983.732 591.879,983.765 591.814,983.765C591.912,983.993 591.993,984.872 592.058,986.402C591.993,986.76 591.961,987.053 591.961,987.281L591.936,988.55C591.936,988.924 591.993,989.413 592.107,990.015C592.042,990.666 592.001,991.154 591.985,991.48C591.985,991.577 592.05,991.87 592.181,992.359L591.961,993.335C592.026,994.051 592.115,994.646 592.229,995.118L592.132,995.288L592.425,995.508C592.441,995.378 592.506,995.313 592.62,995.313C592.929,995.476 593.255,995.606 593.597,995.703L594.5,995.459L595.843,995.655L596.526,995.459C596.689,995.59 596.819,995.655 596.917,995.655L598.479,995.386C598.919,995.467 599.212,995.573 599.358,995.703L599.651,995.703L599.944,995.508L600.139,995.606L600.335,995.508C600.66,995.655 600.888,995.728 601.018,995.728C601.848,995.533 602.337,995.41 602.483,995.362C603.248,995.557 603.704,995.655 603.85,995.655C603.916,995.655 603.948,995.622 603.948,995.557L604.436,995.679L604.632,995.679C605.153,995.679 605.844,995.329 606.707,994.629C607.114,994.629 607.447,993.824 607.708,992.212C607.643,992.082 607.61,991.984 607.61,991.919C607.626,991.464 607.7,991.236 607.83,991.236C607.7,990.926 607.635,990.601 607.635,990.259C607.635,990.129 607.708,989.771 607.854,989.185C607.822,988.257 607.806,987.435 607.806,986.719L607.806,986.06L607.61,985.865L607.61,985.376L607.806,985.083L607.854,982.251C607.724,982.089 607.659,981.958 607.659,981.861C607.659,981.796 607.692,981.763 607.757,981.763L607.683,981.275L607.683,980.201C607.683,979.859 607.757,979.468 607.903,979.029C607.757,976.229 607.317,974.821 606.585,974.805C606.585,974.724 606.202,974.585 605.437,974.39L604.461,974.488L603.68,974.463L602.483,974.756C601.523,974.61 600.88,974.463 600.555,974.317C600.213,974.447 599.952,974.512 599.773,974.512L599.773,974.414C599.708,974.414 599.676,974.447 599.676,974.512C599.187,974.366 598.894,974.292 598.797,974.292L598.406,974.488C597.869,974.423 597.543,974.357 597.43,974.292L597.405,974.292C597.356,974.292 597.332,974.317 597.332,974.366L596.648,974.268L596.453,974.268C595.558,974.496 594.752,974.61 594.036,974.61L593.889,974.61Z"/>
            <path d="M631.414,978.101C633.302,978.166 634.864,978.199 636.101,978.199L636.199,978.199C638.868,978.459 640.203,978.687 640.203,978.882C640.333,978.817 640.431,978.785 640.496,978.785C641.098,978.785 641.977,979.273 643.133,980.249C643.426,980.314 643.849,981.193 644.402,982.886C644.402,983.033 644.565,983.326 644.89,983.765C644.89,984.497 644.988,985.311 645.183,986.206C645.118,986.776 645.086,987.102 645.086,987.183C645.346,988.094 645.476,988.583 645.476,988.648C645.281,990.747 645.118,992.017 644.988,992.456L645.086,992.945C644.858,994.963 644.695,995.972 644.598,995.972C644.598,996.477 643.849,997.486 642.351,998.999C640.577,999.732 639.015,1000.22 637.664,1000.46C637.094,1000.4 636.606,1000.37 636.199,1000.37C635.922,1000.37 635.662,1000.43 635.418,1000.56C633.611,1000.5 632.114,1000.46 630.926,1000.46L629.558,1000.46C629.233,1000.46 628.81,1000.33 628.289,1000.07L628.094,1000.17C627.833,1000.12 627.703,1000.06 627.703,999.976L627.508,1000.07C626.531,999.943 625.717,999.878 625.066,999.878L624.871,999.878C623.732,999.406 623.146,998.983 623.113,998.609C622.706,998.413 622.413,998.023 622.234,997.437C621.892,997.437 621.599,996.623 621.355,994.995C621.241,994.914 620.883,993.97 620.281,992.163C620.281,991.952 620.314,991.398 620.379,990.503C620.379,990.161 620.346,989.608 620.281,988.843C620.346,986.825 620.411,985.816 620.476,985.816C620.721,984.986 620.916,984.042 621.062,982.984L621.844,981.519C622.462,980.152 623.081,979.468 623.699,979.468C623.959,979.175 624.806,978.817 626.238,978.394L628.973,978.394C629.119,978.394 629.249,978.426 629.363,978.492C629.477,978.426 629.607,978.394 629.754,978.394L630.535,978.394C630.747,978.231 631.04,978.133 631.414,978.101ZM629.754,983.472L629.363,983.472C629.103,983.472 628.159,983.7 626.531,984.156L625.945,985.425C625.766,985.881 625.603,986.532 625.457,987.378L625.457,987.574C625.457,988.127 625.522,988.55 625.652,988.843L625.555,989.038C625.555,989.104 625.587,989.136 625.652,989.136L625.555,989.624L625.555,990.113C625.555,990.536 625.522,990.959 625.457,991.382C625.717,993.205 625.978,994.117 626.238,994.117C626.385,994.637 626.775,994.898 627.41,994.898L627.898,995.191L628.387,995.191C628.647,995.191 629.07,995.126 629.656,994.995L631.316,995.484L632.098,995.484C632.407,995.484 632.732,995.516 633.074,995.581C633.644,995.451 634.099,995.386 634.441,995.386C635.418,995.516 635.939,995.581 636.004,995.581C638.348,995.191 639.519,994.605 639.519,993.824C639.78,993.156 639.91,992.701 639.91,992.456L639.91,991.773C640.04,991.61 640.203,991.024 640.398,990.015C640.203,989.836 640.105,988.599 640.105,986.304L640.105,986.011C639.78,985.327 639.422,984.807 639.031,984.449C638.413,983.863 637.631,983.57 636.687,983.57C636.427,983.7 636.069,983.765 635.613,983.765C635.076,983.765 634.588,983.667 634.148,983.472C634.034,983.537 633.904,983.57 633.758,983.57L633.66,983.57C633.595,983.57 633.562,983.537 633.562,983.472C633.286,983.602 632.765,983.667 632,983.667L631.805,983.667C631.284,983.667 630.665,983.57 629.949,983.374L629.754,983.472Z"/>
            <path d="M654.583,976.88C656.861,977.124 658.001,977.515 658.001,978.052C658.473,978.313 658.831,978.443 659.075,978.443C659.759,978.247 660.182,978.15 660.345,978.15C660.686,978.215 660.882,978.247 660.931,978.247C661.468,978.182 661.793,978.117 661.907,978.052C661.972,978.052 662.07,978.085 662.2,978.15C663.177,978.085 663.99,977.987 664.641,977.857L666.082,977.808L666.888,977.954C667.229,978.02 667.425,978.052 667.473,978.052C667.62,978.052 667.978,978.02 668.548,977.954C669.834,978.068 670.68,978.231 671.087,978.443L671.575,978.345L671.673,978.345C671.982,978.345 672.503,978.41 673.235,978.54L673.723,978.443C674.684,978.687 675.856,979.566 677.239,981.079C677.825,981.405 678.118,982.023 678.118,982.935L678.118,985.181C678.232,985.376 678.362,985.93 678.509,986.841C678.574,986.841 678.606,986.874 678.606,986.939L678.606,987.134L678.411,987.427L678.509,988.697L678.411,989.283L678.606,990.552C678.411,990.796 678.313,991.252 678.313,991.919L678.313,992.896L678.411,993.384L678.484,993.994L678.411,994.849L678.509,995.435C678.444,995.565 678.411,995.663 678.411,995.728C678.476,996.379 678.509,996.867 678.509,997.193C678.118,998.885 677.63,999.732 677.044,999.732C676.474,1000.32 675.725,1000.61 674.798,1000.61C673.561,1000.01 672.942,999.195 672.942,998.169C672.861,998.169 672.796,997.974 672.747,997.583C672.812,997.079 672.902,996.273 673.015,995.166L672.942,992.798C672.942,992.521 672.91,992.163 672.845,991.724C672.91,991.594 672.942,991.496 672.942,991.431L672.747,991.333C672.877,990.975 672.975,990.064 673.04,988.599C672.975,987.639 672.942,986.532 672.942,985.279C672.828,984.367 672.373,983.911 671.575,983.911C670.989,983.586 670.175,983.423 669.134,983.423L668.841,983.423C668.629,983.423 668.401,983.521 668.157,983.716C667.376,983.553 666.985,983.391 666.985,983.228C666.497,983.358 666.041,983.423 665.618,983.423C665.439,983.423 665.244,983.358 665.032,983.228L664.544,983.326C663.681,983.195 663.225,983.13 663.177,983.13C660.052,983.749 658.489,984.335 658.489,984.888C658.229,985.051 658.098,985.441 658.098,986.06L658.196,986.255L657.806,988.013L657.806,988.599L658.001,988.892L658.001,990.161C658.017,990.487 658.082,990.65 658.196,990.65L658.098,991.626L658.098,992.31C658.229,992.766 658.294,993.026 658.294,993.091L658.001,994.068C658.18,994.637 658.286,995.004 658.318,995.166C658.302,995.817 658.294,996.2 658.294,996.314L658.294,996.607C658.294,996.851 658.221,997.461 658.074,998.438L658.074,998.462C658.074,999.406 657.366,1000.09 655.95,1000.51L655.852,1000.51C654.388,1000.27 653.549,999.927 653.338,999.488C652.98,999.488 652.776,998.592 652.727,996.802C652.858,996.591 652.923,996.395 652.923,996.216L652.923,995.435L652.63,994.263C652.744,993.954 652.801,993.547 652.801,993.042C652.801,992.538 652.744,991.936 652.63,991.236C652.63,990.78 652.736,990.397 652.947,990.088L652.727,989.576C652.727,989.217 652.695,988.762 652.63,988.208L652.923,987.622L652.923,987.134C652.727,986.906 652.63,986.385 652.63,985.572C652.89,984.79 653.02,984.204 653.02,983.814C653.02,983.684 652.955,983.456 652.825,983.13C652.89,982.674 652.955,982.382 653.02,982.251C652.906,982.251 652.809,982.056 652.727,981.665C652.792,980.966 652.858,980.542 652.923,980.396C652.858,980.249 652.792,979.761 652.727,978.931C653.118,978.036 653.736,977.352 654.583,976.88Z"/>
            <path d="M699.822,978.125L700.213,978.223C700.327,978.158 700.457,978.125 700.603,978.125L701.189,978.418L701.678,978.418L701.678,978.614L702.068,978.614C702.54,978.614 703.094,978.711 703.728,978.907C704.152,978.776 704.445,978.711 704.607,978.711L704.705,978.711C706.691,979.102 707.83,979.427 708.123,979.688C708.123,979.834 708.611,980.16 709.588,980.664C709.978,981.202 710.402,981.918 710.857,982.813L710.857,984.473C710.987,984.929 711.053,985.189 711.053,985.254L711.053,986.035C711.053,986.312 711.085,986.67 711.15,987.11C711.02,987.435 710.955,987.663 710.955,987.793C711.085,988.054 711.15,988.249 711.15,988.379L711.053,988.77C711.053,988.835 711.085,988.933 711.15,989.063C711.085,989.616 711.053,990.072 711.053,990.43L711.053,991.504C711.053,991.96 710.987,992.188 710.857,992.188L711.248,994.239L711.248,994.727C711.053,994.987 710.955,995.476 710.955,996.192L711.053,997.168L710.955,997.168C710.955,997.233 710.987,997.266 711.053,997.266L710.955,998.243L710.955,998.731L710.76,998.731L710.76,999.024C710.353,1000.46 709.832,1001.17 709.197,1001.17C709.197,1001.29 709.002,1001.42 708.611,1001.56C707.57,1001.56 706.756,1001.14 706.17,1000.29C705.974,1000.29 705.877,1000.23 705.877,1000.1L705.681,1000.2L704.9,1000.2L704.314,1000.29C704.249,1000.29 704.217,1000.26 704.217,1000.2L702.849,1000.49L701.189,1000.49C701.043,1000.49 700.913,1000.52 700.799,1000.59C700.734,1000.59 700.701,1000.55 700.701,1000.49C699.399,1000.55 698.422,1000.59 697.771,1000.59L694.353,1000.59C694.288,1000.59 694.028,1000.52 693.572,1000.39L693.181,1000.39C691.847,1000.39 690.708,1000.13 689.764,999.61L689.764,999.512L689.275,999.512C688.706,999.512 687.859,998.991 686.736,997.95C686.085,996.11 685.76,994.678 685.76,993.653C685.76,993.604 685.792,993.409 685.857,993.067C685.792,992.66 685.76,992.204 685.76,991.7L685.76,991.504C686.622,989.73 687.338,988.623 687.908,988.184C687.908,987.663 689.145,987.207 691.619,986.817C691.7,986.719 692.156,986.556 692.986,986.328C693.409,986.459 693.702,986.524 693.865,986.524L694.256,986.524C694.418,986.394 694.809,986.263 695.428,986.133C695.493,986.133 695.525,986.166 695.525,986.231L696.014,986.133L697.478,986.133C697.999,986.133 698.723,986.149 699.651,986.182L700.701,986.328L700.896,986.231L702.508,986.524L704.021,986.719C704.477,986.719 704.843,986.735 705.12,986.768C705.136,986.784 705.153,986.792 705.169,986.792C705.413,986.792 705.649,986.573 705.877,986.133L705.779,985.938C705.779,985.873 705.812,985.84 705.877,985.84L705.779,985.352L705.779,984.571C705.454,984.571 705.291,984.375 705.291,983.985L704.119,983.985L702.459,983.301L701.971,983.399L701.385,983.399C701.238,983.399 701.108,983.366 700.994,983.301C700.229,983.545 699.545,983.708 698.943,983.789C698.406,983.529 697.885,983.399 697.381,983.399C697.381,983.562 696.469,983.724 694.646,983.887L694.646,983.985L694.158,983.887L691.619,983.887C690.903,984.196 690.545,984.522 690.545,984.864L689.373,985.547L688.885,985.547L688.885,985.743L688.689,985.743C687.224,985.173 686.476,984.717 686.443,984.375C686.411,984.375 686.248,984.18 685.955,983.789L685.955,982.813L685.76,982.52L685.76,982.227C685.939,981.771 686.199,981.413 686.541,981.153C686.818,980.567 687.794,979.948 689.471,979.297C690.138,978.776 690.724,978.516 691.228,978.516L691.912,978.516C692.856,978.646 693.344,978.711 693.377,978.711C694.337,978.711 695.086,978.549 695.623,978.223L697.185,978.223L698.357,978.418C698.65,978.418 699.139,978.321 699.822,978.125ZM699.431,991.407L697.771,991.407C697.706,991.407 697.674,991.374 697.674,991.309C697.332,991.439 696.876,991.537 696.306,991.602C695.265,991.472 694.646,991.407 694.451,991.407C693.67,991.472 693.084,991.504 692.693,991.504L692.693,991.407C691.586,991.667 691.033,992.025 691.033,992.481L690.935,992.481C691,992.823 691.033,993.018 691.033,993.067L690.935,993.75C691.131,993.783 691.228,994.043 691.228,994.532L691.228,994.922C691.993,995.248 692.742,995.476 693.474,995.606C694.028,995.541 694.484,995.508 694.842,995.508L695.623,995.508C696.062,995.508 697.104,995.671 698.748,995.996C699.155,995.931 699.611,995.899 700.115,995.899L700.213,995.899C700.782,995.508 701.368,995.313 701.971,995.313C702.345,995.394 702.605,995.492 702.752,995.606L703.924,995.606C703.924,995.41 704.412,995.215 705.389,995.02C705.698,994.808 706.056,994.255 706.463,993.36L706.365,993.164L706.365,992.676C706.088,992.676 705.73,992.351 705.291,991.7C703.208,991.569 701.971,991.407 701.58,991.211L700.896,991.211L700.603,991.016L699.431,991.407Z"/>
            <path d="M728.802,972.144C729.973,972.811 730.657,973.462 730.852,974.097L730.852,974.292L730.95,975.269L730.95,976.538C730.95,977.45 731.503,977.906 732.61,977.906L732.806,977.906L733.001,977.808C733.098,977.922 733.912,978.02 735.442,978.101C735.833,978.052 736.028,977.987 736.028,977.906C736.093,977.906 736.191,977.938 736.321,978.003C737.135,977.938 737.623,977.906 737.786,977.906C740.52,978.068 741.888,978.426 741.888,978.98C742.473,979.208 742.766,979.631 742.766,980.249C742.766,981.584 742.213,982.528 741.106,983.081L740.911,982.984C740.634,982.984 740.048,983.146 739.153,983.472C737.802,983.602 736.891,983.667 736.419,983.667C735.524,983.407 734.71,983.277 733.977,983.277L733.684,983.277L733.343,983.228L732.806,983.081C732.806,983.277 732.285,983.472 731.243,983.667C731.243,983.732 731.113,983.863 730.852,984.058C730.852,984.432 730.885,984.953 730.95,985.62C730.885,986.174 730.852,986.597 730.852,986.89C730.917,987.02 730.95,987.118 730.95,987.183C730.82,987.476 730.755,987.899 730.755,988.452L730.852,989.087L730.804,989.527C730.804,989.787 730.844,990.08 730.926,990.406C730.942,990.585 730.95,990.747 730.95,990.894C730.95,991.236 730.901,991.529 730.804,991.773L730.804,991.968L730.828,992.432L730.755,993.238C730.755,994.475 731.243,995.093 732.22,995.093C732.35,995.093 732.936,995.158 733.977,995.288C734.222,995.174 734.742,995.077 735.54,994.995L737.102,995.191C737.102,995.093 737.46,994.963 738.177,994.8C739.153,992.391 740.162,991.187 741.204,991.187C742.75,991.187 743.629,991.675 743.841,992.652C744.003,992.652 744.101,993.433 744.134,994.995C744.085,995.972 743.955,996.46 743.743,996.46L743.841,996.656L743.841,996.753C743.841,997.648 743.287,998.495 742.181,999.292C741.79,999.292 741.334,999.52 740.813,999.976L740.227,999.976C738.86,1000.3 738.111,1000.46 737.981,1000.46C737.867,1000.4 737.737,1000.37 737.591,1000.37C737.591,1000.5 737.493,1000.56 737.298,1000.56C737.07,1000.56 736.777,1000.53 736.419,1000.46C736.061,1000.53 735.8,1000.56 735.638,1000.56L735.442,1000.46C735.328,1000.53 735.198,1000.56 735.052,1000.56C734.986,1000.56 734.954,1000.53 734.954,1000.46L734.759,1000.56L733.684,1000.56C733.408,1000.56 733.05,1000.53 732.61,1000.46L732.415,1000.56C730.852,1000.43 729.648,1000.2 728.802,999.878C728.802,999.781 728.216,999.553 727.044,999.195C726.149,998.169 725.595,996.965 725.384,995.581C725.449,994.702 725.481,994.084 725.481,993.726L725.384,993.14C725.449,992.782 725.481,992.521 725.481,992.359C725.481,991.936 725.449,991.512 725.384,991.089C725.449,990.227 725.481,989.51 725.481,988.941C725.416,987.264 725.384,986.32 725.384,986.109C725.253,986.109 725.188,986.044 725.188,985.913L725.188,985.425C725.188,984.4 724.96,983.814 724.505,983.667L724.309,983.765L723.919,983.765C723.496,983.505 723.17,983.374 722.942,983.374L722.747,983.374L722.454,983.57L721.868,983.57C720.354,983.374 719.541,983.114 719.427,982.788C719.085,982.788 718.857,982.3 718.743,981.324L718.743,981.031C718.873,980.917 718.971,980.428 719.036,979.566C719.834,978.524 720.81,978.003 721.966,978.003L722.356,978.101C722.877,977.971 723.431,977.906 724.016,977.906L724.114,977.906C724.57,977.385 724.863,977.124 724.993,977.124L724.993,974.976C725.188,973.413 725.872,972.632 727.044,972.632C728.004,972.388 728.525,972.225 728.606,972.144L728.802,972.144Z"/>
            <path d="M759.759,967.749C760.166,967.831 760.621,967.928 761.126,968.042L761.321,968.042L761.297,968.238L761.59,968.238C762.827,968.645 763.445,969.271 763.445,970.118C763.624,970.541 763.714,971.094 763.714,971.778C763.697,972.657 763.03,973.592 761.712,974.585L760.638,974.976C760.507,974.976 760.279,974.903 759.954,974.756C759.742,974.886 759.547,974.952 759.368,974.952L758.88,974.952C757.74,974.561 757,974.032 756.658,973.365C756.219,972.827 755.999,971.949 755.999,970.728L755.999,970.606C756.015,969.678 756.715,968.872 758.098,968.189L758.172,968.189C758.383,968.189 758.489,968.132 758.489,968.018C759.026,967.904 759.449,967.814 759.759,967.749ZM759.222,978.272C759.677,978.353 760.556,978.492 761.858,978.687C762.379,978.964 762.737,979.362 762.932,979.883L763.079,980.64L763.103,981.055L763.103,981.446C763.103,981.966 763.128,982.39 763.177,982.715C763.111,983.122 763.079,983.578 763.079,984.082L763.079,984.131C763.079,984.31 763.136,984.619 763.25,985.059C763.168,986.035 763.128,986.849 763.128,987.5L763.128,987.598C763.128,987.663 763.095,987.696 763.03,987.696L763.274,988.599C763.16,989.104 763.071,989.421 763.006,989.551C763.136,989.991 763.225,990.674 763.274,991.602C763.209,991.862 763.168,992.09 763.152,992.285L763.372,993.116L763.079,994.165L763.323,995.166C763.421,995.915 763.608,996.289 763.885,996.289C764.308,996.501 764.861,996.688 765.545,996.851L766.521,996.778C766.831,996.778 767.612,997.144 768.865,997.876C769.207,998.43 769.394,998.983 769.427,999.536C769.15,1000.07 768.686,1000.49 768.035,1000.78C768.035,1000.91 767.97,1000.98 767.84,1000.98L766.814,1001.03L766.18,1000.78L765.716,1000.86L765.301,1000.95L764.519,1000.95C764.259,1000.95 763.836,1001.01 763.25,1001.12C762.648,1000.99 762.257,1000.86 762.078,1000.71L761.785,1000.71C761.622,1000.84 761.232,1000.97 760.613,1001.1L760.418,1001.1C760.092,1000.9 759.93,1000.76 759.93,1000.68C758.514,1001.06 757.667,1001.25 757.39,1001.25L757.293,1001.25L755.828,1000.83C755.535,1000.94 755.039,1001 754.339,1001L754.07,1001L752.947,1000.88C752.54,1000.88 752.076,1000.68 751.556,1000.27L751.287,999.195L751.531,998.169C752.068,997.567 752.736,997.176 753.533,996.997L755.462,996.656C756.813,996.444 757.545,995.972 757.659,995.24C757.936,993.482 758.082,992.408 758.098,992.017C757.985,991.105 757.928,990.463 757.928,990.088L757.928,989.087C757.797,988.924 757.732,988.794 757.732,988.697C757.732,988.566 757.806,987.948 757.952,986.841C757.773,986.532 757.683,986.231 757.683,985.938L757.683,985.865L757.781,985.669C757.781,985.604 757.749,985.572 757.683,985.572L757.781,985.083L757.806,984.009C757.496,982.902 756.975,982.349 756.243,982.349C755.022,982.333 754.184,982.023 753.728,981.421C753.533,981.421 753.338,981.258 753.142,980.933L753.142,980.738C753.094,980.526 753.069,980.298 753.069,980.054L753.069,979.859C753.411,978.964 754.42,978.516 756.097,978.516L756.194,978.516C757.203,978.353 757.887,978.272 758.245,978.272L759.222,978.272Z"/>
        </g>
    </g>
</svg>
